<svg width="72" height="16" viewBox="0 0 72 16" fill="none" xmlns="http://www.w3.org/2000/svg">
<path d="M22.5331 2.75397H20.4375V11.6559C20.4375 13.1338 21.0588 13.7496 22.3161 13.7496H28.1985V11.9466H23.322C22.7155 11.9466 22.5331 11.7594 22.5331 11.1781V2.75397ZM34.5346 14.0009C31.6944 14.0009 29.9884 12.4934 29.9884 9.53265V2.75397H32.0692V9.40949C32.0692 11.0106 32.582 12.183 34.5346 12.183C36.4871 12.183 36.9999 11.0894 36.9999 9.39471V2.73919H39.0807V9.51787C39.0807 12.4441 37.3747 14.0009 34.5346 14.0009ZM49.958 13.7545V11.9367H54.2724C55.515 11.9367 56.1511 11.6116 56.1511 10.7495C56.1511 9.98095 55.653 9.73463 54.302 9.36515L53.0151 9.01045C50.6089 8.35032 49.8052 7.57687 49.8052 5.75904C49.8052 3.94121 50.8899 2.73919 53.5131 2.73919H57.438V4.58658H53.4835C52.379 4.58658 51.8416 4.83289 51.8416 5.6211C51.8416 6.36006 52.3396 6.71476 53.6117 7.0399L54.9479 7.37982C57.1816 7.95128 58.2368 8.74936 58.2368 10.5376C58.2368 12.6018 57.0879 13.7545 53.8928 13.7545H49.958ZM69.0894 8.25672C69.0894 6.01029 67.7088 4.34518 65.5984 4.34518C63.488 4.34518 62.1518 5.98073 62.1518 8.25672C62.1518 10.5327 63.5768 12.183 65.5984 12.183C67.7236 12.183 69.0894 10.4884 69.0894 8.25672ZM59.9823 8.27149C59.9823 5.06935 62.2307 2.52734 65.5836 2.52734C68.9365 2.52734 71.2639 4.93142 71.2639 8.27149C71.2639 11.6116 68.8774 13.9713 65.6033 13.9713C62.0976 13.9713 59.9872 11.5377 59.9872 8.27149H59.9823ZM42.5273 9.31588L45.831 13.7496H48.3457L44.3419 8.46855C44.1249 8.17789 44.0312 7.96113 44.0312 7.74437C44.0312 7.52761 44.1742 7.33057 44.4355 7.03499L48.2717 2.73919H45.7422L42.483 6.4044C41.985 6.97093 41.7532 7.37489 41.7532 7.75915C41.7532 8.25179 42.0343 8.65082 42.5273 9.31588Z" fill="#1D1D1F"/>
<path fill-rule="evenodd" clip-rule="evenodd" d="M14.4512 5.40475C14.4512 4.76944 14.1123 4.1824 13.5621 3.86474L8.60693 1.00386C8.05674 0.686212 7.37887 0.686212 6.82868 1.00386L1.8735 3.86474C1.32331 4.18239 0.984375 4.76944 0.984375 5.40475L0.984375 11.1265C0.984375 11.7618 1.32331 12.3489 1.8735 12.6665L6.82868 15.5274C7.37888 15.845 8.05674 15.845 8.60693 15.5274L13.5621 12.6665C14.1123 12.3489 14.4512 11.7618 14.4512 11.1265V5.40475ZM6.20586 4.70898C5.87035 4.70898 5.56033 4.88798 5.39258 5.17853L3.88174 7.79538C3.71399 8.08594 3.71399 8.44392 3.88174 8.73448L5.39258 11.3513C5.56033 11.6419 5.87035 11.8209 6.20586 11.8209H9.22754C9.56304 11.8209 9.87306 11.6419 10.0408 11.3513L11.5517 8.73448C11.7194 8.44392 11.7194 8.08594 11.5517 7.79538L10.0408 5.17853C9.87306 4.88798 9.56304 4.70898 9.22754 4.70898H6.20586Z" fill="#1D1D1F"/>
</svg>
